<?xml version="1.0" encoding="utf-8"?>
<!-- Generator: Adobe Illustrator 19.2.0, SVG Export Plug-In . SVG Version: 6.00 Build 0)  -->
<svg version="1.1" id="Layer_1" xmlns="http://www.w3.org/2000/svg" xmlns:xlink="http://www.w3.org/1999/xlink" x="0px" y="0px"
	 viewBox="0 0 208.4 175.9" style="enable-background:new 0 0 208.4 175.9;" xml:space="preserve">
<style type="text/css">
	.st0{fill:#808080;}
	.st1{fill:none;}
	.st2{fill:#F15A24;}
	.st3{fill:#666666;}
	.st4{fill:#A6A6A6;}
	.st5{fill:#F7931E;}
	.st6{fill:#999999;}
	.st7{fill:#5F5F5F;}
	.st8{fill:#4D4D4D;}
	.st9{font-family:'ArialRoundedMTBold';}
	.st10{font-size:29.3742px;}
</style>
<rect x="13.7" y="144.3" class="st0" width="41" height="22.9"/>
<rect x="13.7" y="117.9" class="st1" width="40.3" height="22.3"/>
<rect x="13.7" y="117.9" class="st0" width="41" height="22.3"/>
<rect x="13.7" y="91.4" class="st2" width="41" height="22.9"/>
<rect x="13.7" y="65.1" class="st1" width="40.3" height="22.3"/>
<rect x="13.7" y="65.1" class="st3" width="41" height="22.3"/>
<rect x="62.3" y="118.2" class="st4" width="40.3" height="22.3"/>
<rect x="62.3" y="118.2" class="st5" width="41" height="22.3"/>
<rect x="62.3" y="91.7" class="st6" width="41" height="22.9"/>
<rect x="62.3" y="65.4" class="st4" width="40.3" height="22.3"/>
<rect x="62.3" y="65.4" class="st5" width="41" height="22.3"/>
<rect x="61.9" y="38.9" class="st2" width="41" height="22.9"/>
<rect x="61.9" y="12.6" class="st4" width="40.3" height="22.3"/>
<rect x="61.9" y="12.6" class="st2" width="41" height="22.3"/>
<rect x="157.2" y="145.1" class="st6" width="41" height="22.9"/>
<rect x="157.2" y="118.8" class="st4" width="40.3" height="22.3"/>
<rect x="157.2" y="118.8" class="st0" width="41" height="22.3"/>
<rect x="110.1" y="91.7" class="st7" width="41" height="22.9"/>
<rect x="110.1" y="65.4" class="st4" width="40.3" height="22.3"/>
<rect x="110.1" y="65.4" class="st7" width="41" height="22.3"/>
<rect x="109.7" y="39.6" class="st5" width="41" height="22.3"/>
<rect x="157.2" y="92.5" class="st5" width="41" height="22.3"/>
<text transform="matrix(1 0 0 1 57.9355 167.9256)" class="st8 st9 st10">MUZIK</text>
<rect x="109.4" y="118.4" class="st2" width="41" height="22.9"/>
</svg>
