<?xml version="1.0" encoding="utf-8"?>
<!-- Generator: Adobe Illustrator 19.2.0, SVG Export Plug-In . SVG Version: 6.00 Build 0)  -->
<svg version="1.1" id="Layer_1" xmlns="http://www.w3.org/2000/svg" xmlns:xlink="http://www.w3.org/1999/xlink" x="0px" y="0px"
	 viewBox="0 0 366.4 384" style="enable-background:new 0 0 366.4 384;" xml:space="preserve">
<style type="text/css">
	.st0{opacity:0.34;fill:none;stroke:#CD0F2D;stroke-width:2;stroke-miterlimit:10;}
	.st1{opacity:0.34;fill:#222B29;stroke:#CD0F2D;stroke-width:2;stroke-miterlimit:10;}
	.st2{opacity:0.34;fill:#333233;stroke:#CD0F2D;stroke-width:2;stroke-miterlimit:10;}
	.st3{opacity:0.31;fill:url(#SVGID_1_);}
	.st4{opacity:0.31;fill:url(#SVGID_2_);}
	.st5{opacity:0.31;fill:url(#SVGID_3_);}
	.st6{opacity:0.73;fill:url(#SVGID_4_);}
</style>
<path class="st0" d="M0,0V319l44.4,34.5c0,0,13,11.7,28.2-5.8s82.7-109.4,82.7-109.4l106.3-134.3l55.3-77.5c0,0,9.7-8.5,2.4-25.5
	H150.7L0,0z"/>
<g>
	<path class="st0" d="M0.6,308.3l44.3,34.2c0,0,14.7,10.4,28.2-7.4c13.5-17.8,147.5-194.1,147.5-194.1l71-92.4L306.3,29
		c0,0,7.3-13.2,6.1-20.7S306.7,1,306.7,1h4.1h8.2"/>
</g>
<path class="st1" d="M0.7,53.5c0,0,95.8-5.5,112.1,91.5S46.3,278.2,1.4,266l-0.8-75.1c0,0,30.3,13.8,43.3-17.7
	c0,0,15-36.3-21.9-49.2c0,0-13.5-6.1-21.4,2L0.7,53.5z"/>
<path class="st2" d="M82.1,0.7c0,0-10.5,36.2,33.2,56.7c0,0,52.7,13.2,59.7-38.1v-18l-15.6-0.6c0,0,11,13.8-2.1,31.6
	c0,0-16.9,26.2-45.9,6.9c0,0-21.8-15.4-15-39.1L82.1,0.7z"/>
<path class="st0" d="M52.5,262.1l34.2,55l5.3-7l-19.7-31.5c0,0,15.1-1.4,35.4-16.5l8.8,15.9l4.6-6l-9.4-14.3
	c0,0,15.5-21.1,20.9-29.5c5.4-8.4,31.6-39.5,31.6-39.5l7.7,14.8l4.4-3.9l-8.4-15l24.2-30.9l13.4,5.8l3.6-3l-14.2-4.9l35.3-40.4
	l7.6,6l2.8-3.5l-7-5.1c0,0,16.3-13.7,17.7-55.2l25.7,12.7l6.5-7.9l-62.9-28.4l-57.1,74.1L120,160.9l-5,5.5l0.8,12.3l12.3-17.8
	c0,0,13.2,26.9-6.1,63.8S81.9,267,69,270.4l-6.3-12.7L52.5,262.1z"/>
<path class="st0" d="M134.6,216.1c0,0,11.9-29.5,2.6-64.9l22.6-29.8c0,0,29.8,11.1,49.4,3.1l2.6,2.2L192.2,149l-14.4-5.6L155,169.5
	l6.3,15.6L134.6,216.1z"/>
<path class="st0" d="M168,113.8l55.2-73l16.9,9.7c0,0,5.8,33.1-17.2,57.1S168,113.8,168,113.8z"/>
<polygon class="st0" points="159.7,170.9 175.8,149.8 186.8,153.3 165.7,180.3 "/>
<path class="st0" d="M294,8.4c0,0-15.2-14.7-22.4,6.7s17.6,21.4,22.4,17.6l1.7,3.9l-4.1,12l9.4-15.2l-2.2-5.1c0,0,5.3-7.2,1-18.8
	c-4.3-11.6-3.6-9.6-3.6-9.6l-4.3-0.1L294,8.4z"/>
<polygon class="st0" points="112.8,145 138.2,115.3 179.7,64.4 217.7,17.2 230.9,0.7 234.9,1.3 188.6,60.8 146.3,114 113.8,151.7 
	"/>
<path class="st0" d="M122.2,1h-4.1c0,0-8.3,9.9,2,20.2c0,0,15.1,10.2,21.1-4.6c0,0,4.5-10.5-2.3-15.9l-3.2,0c0,0,6.7,5.4,2.1,15.5
	c0,0-4.7,11-15.6,0.4C122.2,16.6,114.9,10,122.2,1z"/>
<path class="st0" d="M0,150.6c0,0,4.2-11.4,17.9-5.7c0,0,16.9,8.3,4.9,23.7c0,0-9.3,11.4-22.9-3.9v-8.7l2.5-0.3
	c0,0,0.9,12.8,12.4,12.9c0,0,13.8-5.6,5.5-15c0,0-2.6-8.2-12.6-4.3c0,0-4.9,3.7-4.9,5.1c0,1.4-0.6,0.5-0.6,0.5L0,155.2V150.6z"/>
<path class="st0" d="M26.1,327c0,0,14.5,10.1,27.7,3.4c0,0-19.8-3.4-14.7-21.9c0,0,3.4-15.4,23.7-7.1c0,0,14.1,8.3,4.6,23l17.2-10.6
	l2.1,3.4l-10.8,14.2c0,0,6.9-9,1.1-8c0,0-8.2,8.9-20.6,12C56.4,335.3,41.8,343.3,26.1,327z"/>
<linearGradient id="SVGID_1_" gradientUnits="userSpaceOnUse" x1="266.9736" y1="96.3674" x2="266.9736" y2="96.3674">
	<stop  offset="0" style="stop-color:#000003"/>
	<stop  offset="0.1036" style="stop-color:#303033"/>
	<stop  offset="0.2294" style="stop-color:#646465"/>
	<stop  offset="0.3578" style="stop-color:#909091"/>
	<stop  offset="0.4861" style="stop-color:#B4B4B5"/>
	<stop  offset="0.6143" style="stop-color:#D0D0D0"/>
	<stop  offset="0.7425" style="stop-color:#E4E4E4"/>
	<stop  offset="0.871" style="stop-color:#F0F0F0"/>
	<stop  offset="1" style="stop-color:#F4F4F4"/>
</linearGradient>
<path class="st3" d="M267,96.4"/>
<linearGradient id="SVGID_2_" gradientUnits="userSpaceOnUse" x1="550.1836" y1="36.0867" x2="550.1836" y2="36.0867">
	<stop  offset="0" style="stop-color:#000003"/>
	<stop  offset="0.1036" style="stop-color:#303033"/>
	<stop  offset="0.2294" style="stop-color:#646465"/>
	<stop  offset="0.3578" style="stop-color:#909091"/>
	<stop  offset="0.4861" style="stop-color:#B4B4B5"/>
	<stop  offset="0.6143" style="stop-color:#D0D0D0"/>
	<stop  offset="0.7425" style="stop-color:#E4E4E4"/>
	<stop  offset="0.871" style="stop-color:#F0F0F0"/>
	<stop  offset="1" style="stop-color:#F4F4F4"/>
</linearGradient>
<path class="st4" d="M550.2,36.1"/>
<linearGradient id="SVGID_3_" gradientUnits="userSpaceOnUse" x1="588.2125" y1="36.6395" x2="588.2125" y2="36.6395">
	<stop  offset="0" style="stop-color:#000003"/>
	<stop  offset="0.1036" style="stop-color:#303033"/>
	<stop  offset="0.2294" style="stop-color:#646465"/>
	<stop  offset="0.3578" style="stop-color:#909091"/>
	<stop  offset="0.4861" style="stop-color:#B4B4B5"/>
	<stop  offset="0.6143" style="stop-color:#D0D0D0"/>
	<stop  offset="0.7425" style="stop-color:#E4E4E4"/>
	<stop  offset="0.871" style="stop-color:#F0F0F0"/>
	<stop  offset="1" style="stop-color:#F4F4F4"/>
</linearGradient>
<path class="st5" d="M588.2,36.6"/>
<path class="st0" d="M65.7,320.9c0,0-4.3,11.4-18,5.5c0,0-16.8-8.5-4.7-23.8c0,0,9.4-11.3,22.8,4.1l-0.1,8.7l-2.5,0.3
	c0,0-0.8-12.8-12.3-13c0,0-13.9,5.5-5.6,15c0,0,2.5,8.2,12.6,4.4c0,0,5-3.7,5-5.1s0.6-0.5,0.6-0.5l2.3-0.2L65.7,320.9z"/>
<path class="st0" d="M299.7,31.9c0,0-4.3,11.4-18,5.5c0,0-16.8-8.5-4.7-23.8c0,0,9.4-11.3,22.8,4.1l-0.1,8.7l-2.5,0.3
	c0,0-0.8-12.8-12.3-13c0,0-13.9,5.5-5.6,15c0,0,2.5,8.2,12.6,4.4c0,0,5-3.7,5-5.1c0-1.4,0.6-0.5,0.6-0.5l2.3-0.2L299.7,31.9z"/>
<linearGradient id="SVGID_4_" gradientUnits="userSpaceOnUse" x1="225.1727" y1="311.2249" x2="225.1727" y2="311.2249">
	<stop  offset="0" style="stop-color:#757575"/>
	<stop  offset="1" style="stop-color:#FFFFFF"/>
</linearGradient>
<path class="st6" d="M225.2,311.2"/>
</svg>
